<svg id="Capa_1" enable-background="new 0 0 512 512" height="512" viewBox="0 0 512 512" width="512" xmlns="http://www.w3.org/2000/svg"><g><path d="m499.456 211.078-22.873-3.796c-5.684-25.729-15.97-50.556-30.163-72.801l13.494-18.865c4.268-5.967 3.594-14.146-1.594-19.333l-42.603-42.603c-5.187-5.187-13.365-5.862-19.333-1.594l-18.864 13.494c-22.245-14.193-47.072-24.479-72.801-30.163l-3.796-22.873c-1.202-7.237-7.462-12.544-14.798-12.544h-60.25c-7.336 0-13.596 5.307-14.797 12.544l-3.796 22.873c-25.729 5.684-50.556 15.97-72.801 30.163l-18.865-13.494c-5.967-4.269-14.146-3.594-19.333 1.594l-42.604 42.602c-5.188 5.188-5.862 13.366-1.594 19.333l13.495 18.865c-14.193 22.245-24.479 47.072-30.163 72.801l-22.873 3.796c-7.237 1.202-12.544 7.462-12.544 14.798v60.25c0 7.336 5.307 13.596 12.544 14.797l22.873 3.796c5.684 25.729 15.97 50.556 30.163 72.801l-13.494 18.865c-4.268 5.967-3.594 14.146 1.594 19.333l42.603 42.603c5.187 5.188 13.366 5.863 19.333 1.594l18.865-13.494c22.245 14.193 47.072 24.479 72.801 30.163l3.796 22.873c1.201 7.237 7.461 12.544 14.797 12.544h60.25c7.336 0 13.596-5.307 14.797-12.544l3.796-22.873c25.729-5.684 50.556-15.97 72.801-30.163l18.865 13.494c5.968 4.268 14.146 3.594 19.333-1.594l42.603-42.603c5.188-5.188 5.862-13.366 1.594-19.333l-13.494-18.864c14.193-22.245 24.479-47.072 30.163-72.801l22.873-3.796c7.237-1.201 12.544-7.461 12.544-14.797v-60.25c0-7.337-5.307-13.597-12.544-14.798zm-17.456 62.332-20.592 3.418c-6.308 1.047-11.259 5.978-12.332 12.281-4.938 29.019-16.09 55.937-33.146 80.005-3.696 5.216-3.68 12.201.039 17.4l12.148 16.983-24.62 24.62-16.983-12.148c-5.2-3.718-12.185-3.733-17.4-.039-24.068 17.056-50.986 28.208-80.005 33.146-6.303 1.073-11.234 6.023-12.281 12.332l-3.418 20.592h-34.82l-3.418-20.592c-1.047-6.308-5.978-11.259-12.281-12.332-29.019-4.938-55.937-16.09-80.005-33.146-5.216-3.696-12.201-3.68-17.4.039l-16.983 12.148-24.62-24.62 12.148-16.983c3.719-5.199 3.734-12.184.039-17.4-17.056-24.068-28.208-50.986-33.146-80.005-1.073-6.303-6.023-11.234-12.332-12.281l-20.592-3.418v-34.82l20.592-3.418c6.308-1.047 11.259-5.978 12.332-12.281 4.938-29.019 16.09-55.937 33.146-80.005 3.696-5.216 3.68-12.201-.039-17.4l-12.148-16.983 24.62-24.62 16.983 12.148c5.2 3.719 12.185 3.734 17.4.039 24.068-17.056 50.986-28.208 80.005-33.146 6.303-1.073 11.234-6.023 12.281-12.332l3.418-20.592h34.819l3.418 20.592c1.047 6.308 5.978 11.259 12.281 12.332 29.019 4.938 55.937 16.09 80.005 33.146 5.216 3.696 12.201 3.68 17.4-.039l16.983-12.148 24.62 24.62-12.148 16.983c-3.719 5.199-3.734 12.184-.039 17.4 17.056 24.068 28.208 50.986 33.146 80.005 1.073 6.303 6.023 11.234 12.332 12.281l20.593 3.418z"/><path d="m256 90.375c-91.326 0-165.625 74.299-165.625 165.625s74.299 165.625 165.625 165.625 165.625-74.299 165.625-165.625-74.299-165.625-165.625-165.625zm0 301.25c-74.784 0-135.625-60.841-135.625-135.625s60.841-135.625 135.625-135.625 135.625 60.841 135.625 135.625-60.841 135.625-135.625 135.625z"/><path d="m293.449 220.898c4.844-7.191 7.676-15.844 7.676-25.148 0-24.882-20.243-45.125-45.125-45.125s-45.125 20.243-45.125 45.125c0 9.303 2.831 17.957 7.676 25.148-22.566 13.007-37.801 37.363-37.801 65.227v30.125c0 8.284 6.716 15 15 15h120.5c8.284 0 15-6.716 15-15v-30.125c0-27.864-15.235-52.221-37.801-65.227zm7.801 80.352h-90.5v-15.125c0-24.951 20.299-45.25 45.25-45.25s45.25 20.299 45.25 45.25zm-60.375-105.5c0-8.34 6.785-15.125 15.125-15.125s15.125 6.785 15.125 15.125-6.785 15.125-15.125 15.125-15.125-6.785-15.125-15.125z"/></g></svg>